<svg width="14" height="14" viewBox="0 0 14 14" fill="none" xmlns="http://www.w3.org/2000/svg">
<path d="M9.625 0.875H4.375C4.0269 0.875 3.69306 1.01328 3.44692 1.25942C3.20078 1.50556 3.0625 1.8394 3.0625 2.1875V11.8125C3.0625 12.1606 3.20078 12.4944 3.44692 12.7406C3.69306 12.9867 4.0269 13.125 4.375 13.125H9.625C9.9731 13.125 10.3069 12.9867 10.5531 12.7406C10.7992 12.4944 10.9375 12.1606 10.9375 11.8125V2.1875C10.9375 1.8394 10.7992 1.50556 10.5531 1.25942C10.3069 1.01328 9.9731 0.875 9.625 0.875ZM10.0625 11.8125C10.0625 11.9285 10.0164 12.0398 9.93436 12.1219C9.85231 12.2039 9.74103 12.25 9.625 12.25H4.375C4.25897 12.25 4.14769 12.2039 4.06564 12.1219C3.98359 12.0398 3.9375 11.9285 3.9375 11.8125V2.1875C3.9375 2.07147 3.98359 1.96019 4.06564 1.87814C4.14769 1.79609 4.25897 1.75 4.375 1.75H9.625C9.74103 1.75 9.85231 1.79609 9.93436 1.87814C10.0164 1.96019 10.0625 2.07147 10.0625 2.1875V11.8125ZM7.65625 3.28125C7.65625 3.41104 7.61776 3.53792 7.54565 3.64584C7.47354 3.75376 7.37105 3.83788 7.25114 3.88755C7.13122 3.93722 6.99927 3.95021 6.87197 3.92489C6.74467 3.89957 6.62774 3.83707 6.53596 3.74529C6.44418 3.65351 6.38168 3.53658 6.35636 3.40928C6.33104 3.28198 6.34403 3.15003 6.3937 3.03011C6.44337 2.9102 6.52749 2.80771 6.63541 2.7356C6.74333 2.66349 6.87021 2.625 7 2.625C7.17405 2.625 7.34097 2.69414 7.46404 2.81721C7.58711 2.94028 7.65625 3.1072 7.65625 3.28125Z" fill="#168D73"/>
</svg>
