<svg width="80" height="21" viewBox="0 0 80 21" fill="none" xmlns="http://www.w3.org/2000/svg">
<path d="M75.9959 10.9514L73.6613 6.61521H74.6626L76.4404 9.97375L78.2335 6.61521H79.2245L76.8593 10.9514V13.2056H75.9959V10.9514Z" fill="white"/>
<path d="M70.869 10.5766H69.2649V13.2056H68.3862V6.61521H71.2981C71.734 6.61521 72.1155 6.69626 72.4424 6.85837C72.7694 7.01709 73.0231 7.24336 73.2036 7.53716C73.3875 7.8276 73.4795 8.16868 73.4795 8.56043C73.4795 8.97581 73.3586 9.33041 73.1168 9.62422C72.8784 9.91803 72.5514 10.1207 72.1359 10.2321C72.5276 10.303 72.8154 10.4516 72.9993 10.6779C73.1866 10.9008 73.3058 11.225 73.3569 11.6505L73.5357 13.2056H72.6774L72.5089 11.7467C72.4578 11.3381 72.3045 11.0409 72.0491 10.8552C71.7937 10.6694 71.4003 10.5766 70.869 10.5766ZM71.1959 7.40039H69.2649V9.80152H71.1959C71.6387 9.80152 71.9827 9.7002 72.2279 9.49758C72.4731 9.29157 72.5957 9.00114 72.5957 8.62628C72.5957 8.23792 72.4731 7.93735 72.2279 7.72459C71.9827 7.50846 71.6387 7.40039 71.1959 7.40039Z" fill="white"/>
<path d="M67.5317 6.61521V7.44092H65.2328V13.2056H64.3695V7.44092H62.0706V6.61521H67.5317Z" fill="white"/>
<path d="M61.318 6.61521V7.43585H57.4713V9.45199H61.0269V10.2372H57.4713V12.3901H61.318V13.2056H56.5926V6.61521H61.318Z" fill="white"/>
<path d="M52.4679 13.2056H51.6506L49.4692 7.82591V13.2056H48.5905V6.61521H49.8575L52.0644 11.9899L54.2202 6.61521H55.528V13.2056H54.6595V7.82591L52.4679 13.2056Z" fill="white"/>
<path d="M41.6888 9.89286C41.6888 9.21744 41.8131 8.62644 42.0617 8.11987C42.3138 7.61331 42.6645 7.21987 43.1141 6.93957C43.5671 6.65927 44.0966 6.51912 44.7029 6.51912C45.5202 6.51912 46.1878 6.73019 46.7054 7.15233C47.2231 7.57447 47.533 8.15027 47.6352 8.87973H46.7361C46.668 8.40355 46.4619 8.02532 46.1179 7.74502C45.7774 7.46472 45.3074 7.32457 44.708 7.32457C44.0405 7.32457 43.5194 7.54914 43.1447 7.9983C42.7701 8.44746 42.5828 9.07898 42.5828 9.89286C42.5828 10.7135 42.7701 11.3501 43.1447 11.8026C43.5194 12.2518 44.0405 12.4764 44.708 12.4764C45.2972 12.4764 45.762 12.3362 46.1026 12.0559C46.4466 11.7722 46.6577 11.3906 46.7361 10.9111H47.6352C47.5296 11.654 47.2163 12.2366 46.6952 12.6587C46.1775 13.0775 45.5134 13.2869 44.7029 13.2869C44.1001 13.2869 43.5722 13.145 43.1192 12.8613C42.6697 12.5777 42.3189 12.1825 42.0668 11.676C41.8148 11.166 41.6888 10.5717 41.6888 9.89286Z" fill="white"/>
<path d="M39.855 6.61521H40.7337V13.2056H39.855V6.61521Z" fill="white"/>
<path d="M36.7312 10.8653H34.6724V13.2056H33.7937V6.61521H36.6443C37.1041 6.61521 37.506 6.70471 37.8499 6.88369C38.1973 7.0593 38.4664 7.30921 38.6571 7.63341C38.8512 7.95424 38.9483 8.32741 38.9483 8.75292C38.9483 9.16156 38.858 9.52628 38.6775 9.84711C38.497 10.1646 38.2399 10.4145 37.9061 10.5968C37.5758 10.7758 37.1841 10.8653 36.7312 10.8653ZM36.5677 7.39533H34.6724V10.0751H36.5677C37.0309 10.0751 37.3936 9.96024 37.6558 9.7306C37.918 9.49758 38.0492 9.17169 38.0492 8.75292C38.0492 8.32403 37.918 7.99139 37.6558 7.75499C37.397 7.51521 37.0343 7.39533 36.5677 7.39533Z" fill="white"/>
<path d="M32.8418 6.61521V7.43585H28.995V9.45199H32.5506V10.2372H28.995V12.3901H32.8418V13.2056H28.1163V6.61521H32.8418Z" fill="white"/>
<path d="M17.4668 20.042H13.2295L14.1553 18.4443H16.5371L20.3721 11.8262L15.085 11.8242L10.3223 20.041H6.08594L7.01172 18.4424H9.39355L14.1562 10.2266H23.1553L17.4668 20.042Z" fill="white"/>
<path d="M13.7607 18.2832L12.833 19.8848L11.9062 18.2832L12.833 16.6826L13.7607 18.2832Z" fill="white"/>
<path d="M6.61816 1.80469L1.85645 10.0205L6.61816 18.2373L5.69043 19.8379L0 10.0205L5.69043 0.204102L6.61816 1.80469Z" fill="white"/>
<path d="M16.0098 17.9824H14.1543L13.0967 16.1562L14.0234 14.5557L16.0098 17.9824Z" fill="white"/>
<path d="M7.94238 11.707H5.29395L8.86719 17.8174H7.01074L2.5127 10.123H3.49023L3.48926 10.1221H8.86914L7.94238 11.707Z" fill="white"/>
<path d="M13.7617 10.0078L9.2627 17.7705L8.33496 16.1699L12.834 8.40723L13.7617 10.0078Z" fill="white"/>
<path d="M16.4072 17.7627L15.4795 16.1621L17.7285 12.2812H19.584L16.4072 17.7627Z" fill="white"/>
<path d="M10.1904 12.0654L9.2627 13.667L8.33496 12.0654L9.2627 10.4648L10.1904 12.0654Z" fill="white"/>
<path d="M10.4521 11.6172L9.65723 10.2441H11.249L10.4521 11.6172Z" fill="white"/>
<path d="M23.1553 9.81445H14.1553L13.0967 7.98828L14.0244 6.3877L15.084 8.21582H20.373L16.5361 1.59766H14.1553L13.2285 0H17.4658L23.1553 9.81445Z" fill="white"/>
<path d="M11.5127 9.81055H9.65723L14.1553 2.0498H16.0117L11.5127 9.81055Z" fill="white"/>
<path d="M5.2959 8.08594H7.94043L8.86719 9.6709H2.5127L7.01172 1.97559H8.86719L5.2959 8.08594Z" fill="white"/>
<path d="M13.7627 1.82617L9.2627 9.58887L8.33496 7.98828L12.835 0.224609L13.7627 1.82617Z" fill="white"/>
<path d="M19.584 7.75977H17.7295L15.4795 3.87891L16.4072 2.27832L19.584 7.75977Z" fill="white"/>
<path d="M10.1904 3.88379L9.2627 5.48438L8.33496 3.88379L9.2627 2.2832L10.1904 3.88379Z" fill="white"/>
<path d="M11.3799 1.83887L10.4531 3.43945L9.39258 1.61133H7.01172L6.08594 0.0126953H10.3223L11.3799 1.83887Z" fill="white"/>
</svg>
