<svg width="14" height="14" viewBox="0 0 14 14" fill="none" xmlns="http://www.w3.org/2000/svg">
<path d="M7 1.3125C5.87512 1.3125 4.7755 1.64607 3.8402 2.27102C2.90489 2.89597 2.17591 3.78423 1.74544 4.82349C1.31496 5.86274 1.20233 7.00631 1.42179 8.10958C1.64124 9.21284 2.18292 10.2263 2.97833 11.0217C3.77374 11.8171 4.78716 12.3588 5.89043 12.5782C6.99369 12.7977 8.13726 12.685 9.17651 12.2546C10.2158 11.8241 11.104 11.0951 11.729 10.1598C12.3539 9.2245 12.6875 8.12488 12.6875 7C12.6859 5.49207 12.0862 4.04636 11.0199 2.98009C9.95365 1.91382 8.50793 1.31409 7 1.3125ZM7.4375 11.7923V8.3125H8.75C8.86603 8.3125 8.97731 8.26641 9.05936 8.18436C9.14141 8.10231 9.1875 7.99103 9.1875 7.875C9.1875 7.75897 9.14141 7.64769 9.05936 7.56564C8.97731 7.48359 8.86603 7.4375 8.75 7.4375H7.4375V6.125C7.4375 5.89294 7.52969 5.67038 7.69378 5.50628C7.85788 5.34219 8.08044 5.25 8.3125 5.25H9.1875C9.30353 5.25 9.41481 5.20391 9.49686 5.12186C9.57891 5.03981 9.625 4.92853 9.625 4.8125C9.625 4.69647 9.57891 4.58519 9.49686 4.50314C9.41481 4.42109 9.30353 4.375 9.1875 4.375H8.3125C7.84837 4.375 7.40325 4.55937 7.07507 4.88756C6.74688 5.21575 6.5625 5.66087 6.5625 6.125V7.4375H5.25C5.13397 7.4375 5.02269 7.48359 4.94064 7.56564C4.8586 7.64769 4.8125 7.75897 4.8125 7.875C4.8125 7.99103 4.8586 8.10231 4.94064 8.18436C5.02269 8.26641 5.13397 8.3125 5.25 8.3125H6.5625V11.7923C5.32919 11.6797 4.18675 11.096 3.37282 10.1626C2.55889 9.22914 2.13614 8.01788 2.19249 6.78072C2.24884 5.54356 2.77996 4.37574 3.67537 3.52018C4.57079 2.66463 5.76156 2.18719 7 2.18719C8.23845 2.18719 9.42922 2.66463 10.3246 3.52018C11.22 4.37574 11.7512 5.54356 11.8075 6.78072C11.8639 8.01788 11.4411 9.22914 10.6272 10.1626C9.81326 11.096 8.67082 11.6797 7.4375 11.7923Z" fill="#168D73"/>
</svg>
