<svg width="14" height="14" viewBox="0 0 14 14" fill="none" xmlns="http://www.w3.org/2000/svg">
<path d="M7 1.3125C5.87512 1.3125 4.7755 1.64607 3.8402 2.27102C2.90489 2.89597 2.17591 3.78423 1.74544 4.82349C1.31496 5.86274 1.20233 7.00631 1.42179 8.10958C1.64124 9.21284 2.18292 10.2263 2.97833 11.0217C3.77374 11.8171 4.78716 12.3588 5.89043 12.5782C6.99369 12.7977 8.13726 12.685 9.17651 12.2546C10.2158 11.8241 11.104 11.0951 11.729 10.1598C12.3539 9.2245 12.6875 8.12488 12.6875 7C12.6858 5.49211 12.086 4.04649 11.0198 2.98025C9.95352 1.91401 8.50789 1.31424 7 1.3125ZM11.7917 6.5625H9.61352C9.51563 4.56586 8.74672 3.15383 8.11617 2.31875C9.09523 2.55386 9.97615 3.0895 10.6354 3.85056C11.2947 4.61161 11.6992 5.55992 11.7923 6.5625H11.7917ZM5.26258 7.4375H8.73742C8.6111 9.71305 7.52172 11.1076 7 11.6484C6.47774 11.107 5.38891 9.7125 5.26258 7.4375ZM5.26258 6.5625C5.38891 4.28695 6.47828 2.89242 7 2.35156C7.52227 2.89461 8.6111 4.28914 8.73742 6.5625H5.26258ZM5.88383 2.31875C5.25328 3.15383 4.48438 4.56586 4.38649 6.5625H2.20774C2.30081 5.55992 2.70534 4.61161 3.3646 3.85056C4.02385 3.0895 4.90477 2.55386 5.88383 2.31875ZM2.20774 7.4375H4.38649C4.48602 9.43414 5.25328 10.8462 5.88383 11.6812C4.90477 11.4461 4.02385 10.9105 3.3646 10.1494C2.70534 9.38839 2.30081 8.44008 2.20774 7.4375ZM8.11399 11.6812C8.74453 10.8462 9.5118 9.43414 9.61133 7.4375H11.7901C11.6971 8.43979 11.2929 9.38788 10.6341 10.1489C9.97526 10.9099 9.09483 11.4457 8.11617 11.6812H8.11399Z" fill="#168D73"/>
</svg>
