<svg width="14" height="14" viewBox="0 0 14 14" fill="none" xmlns="http://www.w3.org/2000/svg">
<path d="M12.4315 1.56846C12.3215 1.4585 12.1842 1.37986 12.0336 1.34064C11.8831 1.30143 11.7248 1.30304 11.5751 1.34534H11.5669L1.07022 4.53034C0.899811 4.57945 0.748348 4.67918 0.635902 4.81632C0.523457 4.95346 0.455337 5.12153 0.44057 5.29826C0.425803 5.47499 0.465086 5.65203 0.553214 5.80593C0.641341 5.95983 0.774153 6.08331 0.934048 6.16002L5.57811 8.4219L7.8367 13.0632C7.90695 13.2131 8.01864 13.3398 8.15857 13.4283C8.29851 13.5168 8.46084 13.5633 8.62639 13.5625C8.65155 13.5625 8.6767 13.5614 8.70186 13.5592C8.87845 13.5449 9.04644 13.477 9.18329 13.3645C9.32014 13.252 9.41931 13.1003 9.46749 12.9298L12.6503 2.43307C12.6503 2.43034 12.6503 2.4276 12.6503 2.42487C12.6931 2.27555 12.6955 2.11752 12.657 1.96701C12.6186 1.8165 12.5407 1.67894 12.4315 1.56846ZM8.63131 12.6793L8.62858 12.687V12.6831L6.4378 8.18237L9.0628 5.55737C9.14138 5.47465 9.18454 5.36451 9.18308 5.25043C9.18162 5.13634 9.13566 5.02735 9.05498 4.94667C8.9743 4.86599 8.8653 4.82003 8.75122 4.81856C8.63714 4.8171 8.527 4.86027 8.44428 4.93885L5.81928 7.56385L1.31686 5.37307H1.31303H1.32069L11.8125 2.18752L8.63131 12.6793Z" fill="#168D73"/>
</svg>
