<svg width="14" height="14" viewBox="0 0 14 14" fill="none" xmlns="http://www.w3.org/2000/svg">
<path d="M11.7441 11.5779L8.32069 6.19773L11.6987 2.48172C11.7751 2.3956 11.8145 2.28284 11.8083 2.16788C11.8021 2.05292 11.7509 1.94503 11.6657 1.86761C11.5805 1.79018 11.4682 1.74946 11.3532 1.75426C11.2382 1.75907 11.1297 1.80902 11.0512 1.89328L7.83343 5.43266L5.61913 1.95289C5.57964 1.89074 5.52511 1.83956 5.46058 1.8041C5.39606 1.76863 5.32362 1.75002 5.24999 1.75H2.62499C2.54654 1.74996 2.46953 1.77101 2.40202 1.81095C2.33451 1.85089 2.27897 1.90825 2.24123 1.97702C2.20349 2.04579 2.18494 2.12344 2.18751 2.20184C2.19008 2.28024 2.21368 2.35651 2.25585 2.42266L5.67929 7.80227L2.30124 11.521C2.26179 11.5634 2.23114 11.6132 2.21108 11.6675C2.19101 11.7218 2.18192 11.7795 2.18434 11.8374C2.18676 11.8952 2.20063 11.952 2.22516 12.0045C2.24968 12.0569 2.28437 12.104 2.32722 12.1429C2.37007 12.1818 2.42021 12.2119 2.47476 12.2313C2.5293 12.2507 2.58715 12.2591 2.64496 12.256C2.70277 12.2529 2.75939 12.2383 2.81154 12.2132C2.86368 12.188 2.91032 12.1528 2.94874 12.1095L6.16655 8.57008L8.38085 12.0498C8.42066 12.1115 8.47533 12.1621 8.53984 12.1971C8.60434 12.2321 8.67661 12.2503 8.74999 12.25H11.375C11.4533 12.25 11.5303 12.2289 11.5977 12.189C11.6651 12.1491 11.7206 12.0918 11.7583 12.0231C11.796 11.9544 11.8146 11.8769 11.8121 11.7986C11.8096 11.7202 11.7861 11.644 11.7441 11.5779ZM8.99007 11.375L3.42178 2.625H5.00772L10.5782 11.375H8.99007Z" fill="#168D73"/>
</svg>
